<svg width="344" height="249" viewBox="0 0 344 249" fill="none" xmlns="http://www.w3.org/2000/svg">
<g clip-path="url(#clip0_11_106)">
<path d="M219.214 186.668V246.691H68.6222C51.4642 246.691 37.5044 233.228 37.5044 216.679C37.5044 200.131 51.4642 186.668 68.6222 186.668H219.214Z" fill="#F2F2F2"/>
<path d="M222.913 246.23C222.913 246.842 222.669 247.429 222.236 247.862C221.802 248.295 221.214 248.538 220.601 248.538H65.9399C57.5399 248.538 49.484 245.206 43.5444 239.275C37.6047 233.343 34.2678 225.299 34.2678 216.91C34.2678 208.522 37.6047 200.477 43.5444 194.546C49.484 188.615 57.5399 185.282 65.9399 185.282H220.601C221.214 185.282 221.802 185.526 222.236 185.959C222.669 186.392 222.913 186.979 222.913 187.591C222.913 188.203 222.669 188.791 222.236 189.223C221.802 189.656 221.214 189.9 220.601 189.9H65.9399C58.7662 189.9 51.8863 192.745 46.8138 197.811C41.7412 202.876 38.8915 209.747 38.8915 216.91C38.8915 224.074 41.7412 230.944 46.8138 236.01C51.8863 241.075 58.7662 243.921 65.9399 243.921H220.601C221.214 243.921 221.802 244.165 222.236 244.598C222.669 245.03 222.913 245.617 222.913 246.23Z" fill="#4B4BC3"/>
<path d="M219.214 200.519H57.3861C57.2634 200.519 57.1458 200.471 57.0591 200.384C56.9724 200.297 56.9237 200.18 56.9237 200.058C56.9237 199.935 56.9724 199.818 57.0591 199.731C57.1458 199.644 57.2634 199.596 57.3861 199.596H219.214C219.337 199.596 219.454 199.644 219.541 199.731C219.628 199.818 219.676 199.935 219.676 200.058C219.676 200.18 219.628 200.297 219.541 200.384C219.454 200.471 219.337 200.519 219.214 200.519Z" fill="#CCCCCC"/>
<path d="M219.214 211.601H57.3861C57.2634 211.601 57.1458 211.552 57.0591 211.465C56.9724 211.379 56.9237 211.261 56.9237 211.139C56.9237 211.016 56.9724 210.899 57.0591 210.812C57.1458 210.726 57.2634 210.677 57.3861 210.677H219.214C219.337 210.677 219.454 210.726 219.541 210.812C219.628 210.899 219.676 211.016 219.676 211.139C219.676 211.261 219.628 211.379 219.541 211.465C219.454 211.552 219.337 211.601 219.214 211.601Z" fill="#CCCCCC"/>
<path d="M219.214 222.682H57.3861C57.2634 222.682 57.1458 222.633 57.0591 222.547C56.9724 222.46 56.9237 222.343 56.9237 222.22C56.9237 222.098 56.9724 221.98 57.0591 221.894C57.1458 221.807 57.2634 221.758 57.3861 221.758H219.214C219.337 221.758 219.454 221.807 219.541 221.894C219.628 221.98 219.676 222.098 219.676 222.22C219.676 222.343 219.628 222.46 219.541 222.547C219.454 222.633 219.337 222.682 219.214 222.682Z" fill="#CCCCCC"/>
<path d="M219.214 233.763H57.3861C57.2634 233.763 57.1458 233.715 57.0591 233.628C56.9724 233.541 56.9237 233.424 56.9237 233.301C56.9237 233.179 56.9724 233.062 57.0591 232.975C57.1458 232.888 57.2634 232.84 57.3861 232.84H219.214C219.337 232.84 219.454 232.888 219.541 232.975C219.628 233.062 219.676 233.179 219.676 233.301C219.676 233.424 219.628 233.541 219.541 233.628C219.454 233.715 219.337 233.763 219.214 233.763Z" fill="#CCCCCC"/>
<path d="M335.6 197.966L297.887 244.706L180.624 150.353C167.263 139.603 164.852 120.372 175.249 107.486C185.647 94.6006 204.976 92.8632 218.337 103.613L335.6 197.966Z" fill="#F2F2F2"/>
<path d="M301.057 246.664C300.672 247.14 300.114 247.445 299.504 247.51C298.895 247.576 298.284 247.397 297.806 247.013L177.375 150.11C170.834 144.847 166.655 137.205 165.756 128.865C164.858 120.525 167.314 112.17 172.584 105.638C177.854 99.1065 185.507 94.9329 193.859 94.0358C202.211 93.1386 210.577 95.5913 217.118 100.854L337.55 197.757C337.786 197.947 337.983 198.182 338.129 198.448C338.275 198.714 338.366 199.006 338.399 199.308C338.432 199.609 338.404 199.914 338.319 200.205C338.233 200.496 338.091 200.768 337.901 201.004C337.71 201.24 337.475 201.436 337.208 201.582C336.942 201.727 336.649 201.818 336.347 201.851C336.045 201.883 335.74 201.856 335.448 201.77C335.157 201.685 334.885 201.543 334.649 201.352L214.217 104.45C211.452 102.222 208.273 100.561 204.865 99.5608C201.456 98.5604 197.883 98.2405 194.35 98.6192C190.818 98.998 187.395 100.068 184.276 101.768C181.158 103.469 178.405 105.766 176.176 108.529C173.947 111.291 172.285 114.466 171.284 117.87C170.284 121.274 169.965 124.842 170.346 128.37C170.726 131.897 171.799 135.316 173.503 138.429C175.207 141.542 177.508 144.29 180.276 146.515L300.707 243.418C301.185 243.802 301.49 244.36 301.555 244.968C301.621 245.577 301.442 246.187 301.057 246.664Z" fill="#CCCCCC"/>
<path d="M326.897 208.752L200.884 107.36C200.837 107.321 200.798 107.274 200.769 107.221C200.74 107.168 200.721 107.11 200.715 107.049C200.708 106.989 200.714 106.928 200.731 106.87C200.748 106.812 200.776 106.757 200.814 106.71C200.853 106.663 200.9 106.624 200.953 106.595C201.006 106.566 201.065 106.547 201.125 106.541C201.185 106.534 201.246 106.54 201.305 106.557C201.363 106.574 201.417 106.602 201.465 106.64L327.477 208.033C327.524 208.071 327.564 208.118 327.593 208.171C327.622 208.225 327.64 208.283 327.647 208.343C327.653 208.404 327.648 208.465 327.631 208.523C327.614 208.581 327.585 208.636 327.547 208.683C327.509 208.73 327.462 208.769 327.409 208.798C327.355 208.828 327.297 208.846 327.236 208.852C327.176 208.859 327.115 208.853 327.057 208.836C326.998 208.819 326.944 208.79 326.897 208.752Z" fill="#CCCCCC"/>
<path d="M319.934 217.381L193.922 115.988C193.827 115.911 193.766 115.8 193.753 115.678C193.74 115.557 193.776 115.435 193.853 115.339C193.929 115.244 194.041 115.183 194.163 115.17C194.285 115.157 194.407 115.193 194.502 115.269L320.515 216.662C320.562 216.7 320.601 216.747 320.63 216.8C320.66 216.854 320.678 216.912 320.685 216.972C320.691 217.033 320.686 217.094 320.669 217.152C320.651 217.21 320.623 217.264 320.585 217.312C320.547 217.359 320.5 217.398 320.446 217.427C320.393 217.456 320.334 217.475 320.274 217.481C320.214 217.488 320.153 217.482 320.094 217.465C320.036 217.448 319.982 217.419 319.934 217.381Z" fill="#CCCCCC"/>
<path d="M312.972 226.01L186.96 124.617C186.864 124.54 186.803 124.429 186.79 124.307C186.777 124.185 186.813 124.063 186.89 123.968C186.967 123.873 187.078 123.812 187.2 123.799C187.322 123.785 187.444 123.821 187.54 123.898L313.552 225.291C313.599 225.329 313.639 225.376 313.668 225.429C313.697 225.482 313.715 225.541 313.722 225.601C313.728 225.661 313.723 225.722 313.706 225.78C313.689 225.839 313.66 225.893 313.622 225.94C313.584 225.987 313.537 226.027 313.484 226.056C313.43 226.085 313.372 226.103 313.311 226.109C313.251 226.116 313.19 226.111 313.132 226.093C313.073 226.076 313.019 226.048 312.972 226.01Z" fill="#CCCCCC"/>
<path d="M306.01 234.639L179.997 133.246C179.95 133.208 179.911 133.161 179.882 133.108C179.853 133.054 179.834 132.996 179.828 132.936C179.821 132.875 179.827 132.815 179.844 132.756C179.861 132.698 179.889 132.644 179.927 132.597C179.966 132.549 180.013 132.51 180.066 132.481C180.119 132.452 180.178 132.434 180.238 132.427C180.298 132.421 180.359 132.426 180.418 132.443C180.476 132.46 180.53 132.489 180.578 132.527L306.59 233.92C306.637 233.958 306.677 234.005 306.706 234.058C306.735 234.111 306.753 234.17 306.76 234.23C306.766 234.29 306.761 234.351 306.744 234.41C306.727 234.468 306.698 234.522 306.66 234.569C306.622 234.617 306.575 234.656 306.522 234.685C306.468 234.714 306.41 234.732 306.349 234.739C306.289 234.745 306.228 234.74 306.169 234.722C306.111 234.705 306.057 234.677 306.01 234.639Z" fill="#CCCCCC"/>
<path d="M343.538 249H0.462366C0.339739 249 0.222134 248.951 0.135423 248.865C0.048713 248.778 0 248.661 0 248.538C0 248.416 0.048713 248.298 0.135423 248.212C0.222134 248.125 0.339739 248.077 0.462366 248.077H343.538C343.66 248.077 343.778 248.125 343.865 248.212C343.951 248.298 344 248.416 344 248.538C344 248.661 343.951 248.778 343.865 248.865C343.778 248.951 343.66 249 343.538 249Z" fill="#CCCCCC"/>
<path d="M156.317 180.359L151.031 180.358L148.517 159.998L156.319 159.999L156.317 180.359Z" fill="#FFB8B8"/>
<path d="M147.255 178.85H157.449V185.26H140.837C140.837 184.418 141.003 183.584 141.325 182.807C141.648 182.029 142.121 181.322 142.717 180.727C143.313 180.132 144.02 179.66 144.799 179.338C145.578 179.016 146.412 178.85 147.255 178.85Z" fill="#2F2E41"/>
<path d="M102.315 180.359L97.0293 180.358L94.5154 159.998L102.317 159.999L102.315 180.359Z" fill="#FFB8B8"/>
<path d="M93.2535 178.85H103.448V185.26H86.835C86.835 184.418 87.001 183.584 87.3235 182.807C87.6461 182.029 88.1189 181.322 88.7149 180.727C89.3109 180.132 90.0185 179.66 90.7972 179.338C91.576 179.016 92.4106 178.85 93.2535 178.85Z" fill="#2F2E41"/>
<path d="M119.97 29.3346V27.026C119.97 23.0767 121.541 19.2893 124.338 16.4968C127.134 13.7043 130.927 12.1354 134.882 12.1354C138.836 12.1354 142.629 13.7043 145.426 16.4968C148.222 19.2893 149.793 23.0767 149.793 27.026V29.3346C149.793 32.1817 148.66 34.9122 146.644 36.9254C144.628 38.9386 141.894 40.0696 139.043 40.0696H130.72C129.309 40.0696 127.911 39.792 126.607 39.2525C125.302 38.713 124.117 37.9222 123.119 36.9254C122.121 35.9286 121.329 34.7451 120.789 33.4427C120.249 32.1403 119.97 30.7443 119.97 29.3346Z" fill="#2F2E41"/>
<path d="M134.882 40.864C141.154 40.864 146.238 35.7867 146.238 29.5236C146.238 23.2605 141.154 18.1833 134.882 18.1833C128.61 18.1833 123.526 23.2605 123.526 29.5236C123.526 35.7867 128.61 40.864 134.882 40.864Z" fill="#FFB8B8"/>
<path d="M73.1114 68.499C73.5722 68.0644 74.1229 67.7361 74.7246 67.537C75.3262 67.338 75.9643 67.2731 76.5938 67.3469C77.2233 67.4207 77.829 67.6315 78.3681 67.9644C78.9072 68.2972 79.3666 68.7441 79.7141 69.2735L89.449 67.4346L92.0109 73.0697L78.2268 75.4737C77.2976 75.9977 76.2082 76.163 75.165 75.9385C74.1218 75.7139 73.1974 75.115 72.5668 74.2553C71.9363 73.3956 71.6435 72.3347 71.7438 71.2738C71.8442 70.2129 72.3308 69.2256 73.1114 68.499Z" fill="#FFB8B8"/>
<path d="M126.155 48.1984L110.192 58.7L83.2552 67.2895C82.8982 67.4041 82.5919 67.6387 82.3886 67.9534C82.1852 68.2681 82.0974 68.6435 82.14 69.0156L82.7276 74.0698C82.7537 74.2935 82.8263 74.5093 82.9408 74.7034C83.0552 74.8974 83.209 75.0654 83.3923 75.1966C83.5756 75.3279 83.7843 75.4194 84.0051 75.4654C84.2258 75.5113 84.4538 75.5107 84.6743 75.4635L110.026 70.037C111.253 69.7759 112.413 69.2659 113.434 68.5385L131.368 55.7964C132.018 55.332 132.537 54.7075 132.874 53.9835C133.211 53.2596 133.355 52.4609 133.291 51.6652C133.225 50.8684 132.953 50.1024 132.501 49.4425C132.048 48.7827 131.432 48.2518 130.712 47.902C129.992 47.5522 129.193 47.3955 128.394 47.4475C127.595 47.4995 126.824 47.7583 126.155 48.1984Z" fill="#CCCCCC"/>
<path d="M151.126 174.581C150.72 174.581 150.323 174.463 149.983 174.242C149.643 174.02 149.376 173.705 149.213 173.334L124.98 113.54C124.923 113.411 124.828 113.301 124.708 113.227C124.587 113.153 124.447 113.118 124.305 113.126C124.164 113.133 124.028 113.185 123.917 113.272C123.805 113.359 123.723 113.478 123.681 113.613L103.911 171.824C103.828 172.095 103.69 172.346 103.506 172.562C103.322 172.778 103.095 172.953 102.84 173.078C102.586 173.203 102.308 173.275 102.025 173.289C101.741 173.303 101.458 173.259 101.192 173.159L94.5624 170.677C94.2026 170.543 93.8869 170.313 93.6504 170.011C93.4139 169.709 93.2659 169.347 93.2229 168.966C90.2404 143.021 116.249 77.5315 116.512 76.8732L116.585 76.6908L140.293 81.928L140.343 81.9817C149.802 92.2863 157.577 157.28 159.039 170.205C159.094 170.671 158.987 171.143 158.738 171.541C158.488 171.94 158.11 172.241 157.666 172.396L151.814 174.463C151.593 174.541 151.36 174.581 151.126 174.581Z" fill="#2F2E41"/>
<path d="M130.698 84.0359C124.954 84.0359 118.55 82.8923 116.578 78.1718L116.533 78.0633L116.594 77.9628C118.15 75.4134 120.207 71.0645 119.101 70.2481C116.924 68.6404 115.868 65.9956 115.961 62.3871C116.165 54.5536 121.51 47.5987 129.262 45.0807C131.425 44.3892 133.627 43.823 135.856 43.3851C137.482 43.0576 139.159 43.0936 140.769 43.4905C142.378 43.8874 143.879 44.6354 145.165 45.6806C146.467 46.7327 147.519 48.0596 148.246 49.5661C148.973 51.0726 149.357 52.7212 149.371 54.3936C149.452 62.765 148.161 74.4246 141.551 82.4294C141.241 82.8008 140.81 83.0512 140.334 83.1364C137.154 83.7108 133.93 84.0118 130.698 84.0359Z" fill="#CCCCCC"/>
<path d="M128.561 83.7225C128.874 82.6027 129.616 81.6513 130.627 81.0752C131.639 80.499 132.836 80.3446 133.961 80.6455C134.19 80.7096 134.414 80.7924 134.63 80.8931L142.022 74.1756L147.163 77.634L136.592 86.9751C136.115 87.8345 135.363 88.5098 134.457 88.8935C133.551 89.2773 132.543 89.3474 131.592 89.0928C131.039 88.9415 130.521 88.6821 130.068 88.3295C129.615 87.977 129.237 87.5384 128.955 87.039C128.673 86.5396 128.493 85.9894 128.426 85.4201C128.358 84.8509 128.404 84.2739 128.561 83.7225Z" fill="#FFB8B8"/>
<path d="M140.851 83.8078C140.372 83.8081 139.907 83.6425 139.536 83.3391L136.621 80.9604C136.378 80.7621 136.183 80.5114 136.051 80.2273C135.918 79.9431 135.852 79.6327 135.857 79.3194C135.862 79.0061 135.938 78.6979 136.079 78.4179C136.22 78.138 136.422 77.8935 136.671 77.7028L148.897 68.3392C149.042 68.2277 149.137 68.0636 149.161 67.8825C149.186 67.7014 149.138 67.518 149.028 67.372L141.482 57.4099C140.605 56.2563 140.166 54.8302 140.241 53.3839C140.316 51.9377 140.901 50.5647 141.892 49.5078C142.937 48.3816 144.367 47.6886 145.899 47.5662C147.431 47.4439 148.953 47.9011 150.163 48.8472L150.211 48.8975L158.09 60.1646C158.942 60.8318 159.628 61.6866 160.095 62.6623C160.562 63.638 160.796 64.7082 160.78 65.7893C160.764 66.8705 160.498 67.9332 160.002 68.8946C159.507 69.8561 158.795 70.6901 157.924 71.3316L142.09 83.4004C141.731 83.665 141.297 83.8078 140.851 83.8078Z" fill="#CCCCCC"/>
<path d="M124.823 26.3334V20.7068L134.882 16.3204L144.473 20.7068V26.3334C144.473 26.5783 144.376 26.8132 144.202 26.9864C144.029 27.1595 143.794 27.2568 143.548 27.2568H125.747C125.502 27.2568 125.267 27.1595 125.093 26.9864C124.92 26.8132 124.823 26.5783 124.823 26.3334Z" fill="#2F2E41"/>
<path d="M134.42 12.8819C132.941 8.15453 136.047 2.73677 140.639 0.865563C145.231 -1.00564 150.725 0.302388 154.6 3.3939C158.474 6.48541 160.878 11.1159 162.152 15.9025C163.426 20.689 163.668 25.6803 163.903 30.6274C169.545 31.6623 173.383 38.3448 171.428 43.7303C169.474 49.1158 162.24 51.7914 157.244 48.9765C152.248 46.1616 150.801 38.5949 154.407 34.1397C156.113 32.0316 157.066 29.4154 157.115 26.7053C157.164 23.9953 156.306 21.3463 154.677 19.1781C153.049 17.0098 150.742 15.4462 148.123 14.7348C145.504 14.0235 142.722 14.2051 140.218 15.2508C137.437 16.412 133.948 13.395 134.42 12.8819Z" fill="#2F2E41"/>
<path d="M71.0259 46.6721C64.271 46.6278 57.6006 45.169 51.4456 42.3897C51.0792 42.2266 50.7682 41.9607 50.5505 41.6242C50.3328 41.2878 50.2178 40.8954 50.2194 40.4948V23.6798C50.2201 23.129 50.4395 22.6008 50.8295 22.2113C51.2196 21.8218 51.7485 21.6027 52.3001 21.6021H89.7517C90.3033 21.6027 90.8322 21.8218 91.2223 22.2113C91.6123 22.6009 91.8317 23.129 91.8323 23.6798V40.4948C91.834 40.8954 91.719 41.2878 91.5013 41.6242C91.2836 41.9607 90.9726 42.2267 90.6062 42.3897C84.4512 45.169 77.7808 46.6279 71.0259 46.6721Z" fill="#4B4BC3"/>
<path d="M71.0208 33.05C70.7431 33.0502 70.4682 32.995 70.2122 32.8877L40.5136 20.3752C40.1306 20.2138 39.8048 19.9416 39.5782 19.5937C39.3515 19.2457 39.2345 18.8379 39.2421 18.4229C39.2497 18.0079 39.3817 17.6046 39.6209 17.2652C39.8602 16.9257 40.1957 16.6656 40.5844 16.5184L70.2834 5.2673C70.7618 5.08525 71.2906 5.08638 71.7682 5.27046L101.069 16.5215C101.456 16.67 101.789 16.9301 102.027 17.2688C102.264 17.6074 102.395 18.0091 102.403 18.4225C102.41 18.8359 102.294 19.2421 102.07 19.5893C101.845 19.9365 101.521 20.2088 101.141 20.3713L71.8391 32.8836C71.5804 32.9936 71.302 33.0502 71.0208 33.05Z" fill="#4B4BC3"/>
<path d="M53.6872 43.5339C55.2194 43.5339 56.4614 42.2935 56.4614 40.7635C56.4614 39.2335 55.2194 37.9932 53.6872 37.9932C52.1551 37.9932 50.913 39.2335 50.913 40.7635C50.913 42.2935 52.1551 43.5339 53.6872 43.5339Z" fill="#3F3D56"/>
<path opacity="0.2" d="M101.242 18.5953L71.9402 31.1075C71.7118 31.2051 71.466 31.2557 71.2176 31.2563C70.9691 31.2569 70.7231 31.2075 70.4942 31.111L40.7956 18.5989C40.4226 18.4455 40.1114 18.1724 39.9113 17.8227C39.7803 18.0495 39.6992 18.3015 39.6732 18.562C39.6472 18.8224 39.6771 19.0855 39.7607 19.3335C39.8444 19.5816 39.9799 19.8091 40.1583 20.0009C40.3367 20.1926 40.554 20.3443 40.7956 20.4458L70.4942 32.9579C70.7231 33.0544 70.9691 33.1038 71.2176 33.1032C71.466 33.1026 71.7118 33.052 71.9402 32.9544L101.242 20.4422C101.482 20.3398 101.698 20.1876 101.875 19.9958C102.052 19.8039 102.187 19.5767 102.27 19.3292C102.352 19.0816 102.382 18.8193 102.355 18.5597C102.329 18.3 102.248 18.0488 102.118 17.8227C101.919 18.1696 101.611 18.4412 101.242 18.5953Z" fill="black"/>
<path d="M53.9203 40.7527C54.0429 40.7527 54.1606 40.7041 54.2473 40.6175C54.334 40.5309 54.3827 40.4134 54.3827 40.291V24.8411L69.6321 19.2935C69.7547 19.2953 69.873 19.2484 69.961 19.1631C70.049 19.0778 70.0995 18.9611 70.1013 18.8386C70.1031 18.7162 70.0562 18.598 69.9708 18.5101C69.8853 18.4222 69.7685 18.3718 69.6458 18.37L54.3965 23.9177C54.2737 23.9148 54.1517 23.9369 54.0378 23.9826C53.9239 24.0282 53.8204 24.0965 53.7337 24.1832C53.6461 24.2689 53.5765 24.3713 53.5292 24.4843C53.4818 24.5973 53.4576 24.7186 53.458 24.8411V40.291C53.458 40.4134 53.5067 40.5309 53.5934 40.6174C53.6801 40.704 53.7977 40.7527 53.9203 40.7527Z" fill="#3F3D56"/>
</g>
<defs>
<clipPath id="clip0_11_106">
<rect width="344" height="249" fill="white"/>
</clipPath>
</defs>
</svg>
