<svg width="24" height="32" viewBox="0 0 24 32" fill="none" xmlns="http://www.w3.org/2000/svg">
<path d="M23.3686 5.18319L12.2918 0.0656632C12.1023 -0.0218877 11.8975 -0.0218877 11.708 0.0656632L0.631148 5.18319C0.447348 5.26812 0.287487 5.43105 0.17421 5.6489C0.0609337 5.86675 -1.43563e-05 6.12848 2.53655e-09 6.39701V19.1908C2.53655e-09 19.5302 0.0972516 19.8556 0.270361 20.0955C0.44347 20.3354 0.678256 20.4702 0.923069 20.4702C1.16788 20.4702 1.40267 20.3354 1.57578 20.0955C1.74889 19.8556 1.84614 19.5302 1.84614 19.1908V8.17215L5.72187 9.96169C4.69214 12.2675 4.36469 15.0454 4.81142 17.6855C5.25815 20.3256 6.44255 22.6121 8.10455 24.0429C6.02764 25.172 4.23227 27.2142 2.91921 30.0064C2.85092 30.1471 2.80348 30.3052 2.77966 30.4715C2.75584 30.6378 2.75611 30.809 2.78045 30.9752C2.80479 31.1413 2.85271 31.2991 2.92144 31.4394C2.99016 31.5797 3.07832 31.6996 3.18078 31.7922C3.28325 31.8848 3.39797 31.9483 3.51829 31.9789C3.6386 32.0096 3.76211 32.0068 3.88164 31.9707C4.00116 31.9345 4.11432 31.8659 4.21452 31.7686C4.31473 31.6714 4.39999 31.5475 4.46535 31.4041C6.20418 27.7067 8.95031 25.5878 11.9999 25.5878C15.0495 25.5878 17.7956 27.7067 19.5344 31.4041C19.6698 31.683 19.879 31.8769 20.1166 31.9438C20.3543 32.0106 20.6014 31.9452 20.8046 31.7615C21.0077 31.5779 21.1505 31.2908 21.2022 30.9624C21.2538 30.634 21.2102 30.2906 21.0806 30.0064C19.7675 27.2142 17.9652 25.172 15.8952 24.0429C17.5557 22.6121 18.7389 20.3271 19.1856 17.689C19.6322 15.0508 19.3058 12.2748 18.2779 9.96969L23.3686 7.61882C23.5525 7.53395 23.7124 7.37104 23.8257 7.15318C23.939 6.93533 24 6.67357 24 6.40501C24 6.13644 23.939 5.87468 23.8257 5.65683C23.7124 5.43897 23.5525 5.27607 23.3686 5.19119V5.18319ZM17.5383 15.3527C17.5386 16.5663 17.3312 17.7626 16.9333 18.8437C16.5353 19.9247 15.9581 20.8595 15.249 21.5714C14.5399 22.2834 13.7192 22.7522 12.854 22.9393C11.9889 23.1265 11.1041 23.0267 10.2722 22.6481C9.4403 22.2695 8.68501 21.623 8.0683 20.7615C7.4516 19.9 6.99105 18.8481 6.72445 17.6921C6.45785 16.5362 6.39279 15.3091 6.53462 14.1115C6.67644 12.914 7.0211 11.7801 7.54032 10.8029L11.708 12.722C11.8975 12.8095 12.1023 12.8095 12.2918 12.722L16.4595 10.8029C17.1608 12.1206 17.5389 13.7152 17.5383 15.3527Z" fill="#4A1E82"/>
</svg>
