<svg width="35" height="34" viewBox="0 0 35 34" fill="none" xmlns="http://www.w3.org/2000/svg">
<path d="M33.479 5.50714L17.655 0.0697671C17.3843 -0.0232557 17.0916 -0.0232557 16.8209 0.0697671L0.996855 5.50714C0.734283 5.59737 0.50591 5.77049 0.344086 6.00195C0.182263 6.23342 0.0951943 6.51151 0.0952148 6.79682V20.3903C0.0952148 20.7508 0.234146 21.0965 0.481444 21.3515C0.728743 21.6064 1.06415 21.7496 1.41388 21.7496C1.76362 21.7496 2.09903 21.6064 2.34632 21.3515C2.59362 21.0965 2.73255 20.7508 2.73255 20.3903V8.68291L8.26932 10.5843C6.79827 13.0342 6.33049 15.9857 6.96868 18.7908C7.60686 21.5959 9.29885 24.0253 11.6731 25.5456C8.70613 26.7452 6.14132 28.9151 4.26551 31.8818C4.16795 32.0313 4.10019 32.1993 4.06616 32.376C4.03213 32.5527 4.03251 32.7346 4.06728 32.9111C4.10205 33.0877 4.17052 33.2553 4.2687 33.4043C4.36688 33.5534 4.49282 33.6808 4.63919 33.7792C4.78557 33.8776 4.94946 33.9451 5.12134 33.9776C5.29322 34.0102 5.46966 34.0072 5.64041 33.9688C5.81116 33.9305 5.97281 33.8575 6.11596 33.7542C6.25911 33.6508 6.38091 33.5192 6.47428 33.3669C8.95833 29.4384 12.8814 27.187 17.2379 27.187C21.5945 27.187 25.5175 29.4384 28.0016 33.3669C28.195 33.6632 28.4937 33.8692 28.8333 33.9402C29.1728 34.0113 29.5258 33.9418 29.816 33.7466C30.1062 33.5515 30.3103 33.2465 30.3841 32.8976C30.4578 32.5486 30.3954 32.1837 30.2103 31.8818C28.3345 28.9151 25.7598 26.7452 22.8027 25.5456C25.1747 24.0254 26.8651 21.5976 27.5032 18.7945C28.1413 15.9915 27.675 13.042 26.2065 10.5928L33.479 8.095C33.7416 8.00482 33.9701 7.83173 34.1319 7.60026C34.2938 7.36879 34.3809 7.09067 34.3809 6.80532C34.3809 6.51997 34.2938 6.24185 34.1319 6.01038C33.9701 5.77891 33.7416 5.60582 33.479 5.51564V5.50714ZM25.1499 16.3122C25.1503 17.6017 24.8541 18.8728 24.2856 20.0214C23.7171 21.1699 22.8925 22.1632 21.8795 22.9196C20.8665 23.6761 19.694 24.1742 18.4581 24.373C17.2222 24.5719 15.9582 24.4659 14.7698 24.0636C13.5814 23.6614 12.5024 22.9744 11.6214 22.0591C10.7404 21.1437 10.0824 20.0261 9.70158 18.7979C9.32072 17.5697 9.22778 16.2659 9.43038 14.9935C9.63298 13.7211 10.1254 12.5163 10.8671 11.4781L16.8209 13.5171C17.0916 13.6101 17.3843 13.6101 17.655 13.5171L23.6087 11.4781C24.6106 12.8782 25.1507 14.5724 25.1499 16.3122Z" fill="#4A1E82"/>
</svg>
